Egyptienne-6.ufo
<glyph name="period" format="2">
  <advance width="230"/>
  <unicode hex="002E"/>
  <outline>
    <contour>
      <point x="30" y="157" type="line"/>
      <point x="30" y="0" type="line"/>
      <point x="200" y="0" type="line"/>
      <point x="200" y="157" type="line"/>
    </contour>
  </outline>
</glyph>
<glyph name="A" format="2">
  <advance width="970"/>
  <unicode hex="0041"/>
  <outline>
    <contour>
      <point x="30" y="0" type="line"/>
      <point x="30" y="80" type="line"/>
      <point x="110" y="80" type="line"/>
      <point x="340" y="700" type="line"/>
      <point x="640" y="700" type="line"/>
      <point x="860" y="80" type="line"/>
      <point x="940" y="80" type="line"/>
      <point x="940" y="0" type="line"/>
      <point x="470" y="0" type="line"/>
      <point x="470" y="80" type="line"/>
      <point x="550" y="80" type="line"/>
      <point x="516" y="185" type="line"/>
      <point x="316" y="185" type="line"/>
      <point x="316" y="184" type="line"/>
      <point x="280" y="80" type="line"/>
      <point x="360" y="80" type="line"/>
      <point x="360" y="0" type="line"/>
    </contour>
    <contour>
      <point x="344" y="265" type="line"/>
      <point x="489" y="265" type="line"/>
      <point x="419" y="479" type="line"/>
    </contour>
  </outline>
  <guideline angle="0" x="0" y="702"/>
  <guideline angle="0" x="0" y="0"/>
</glyph>
<glyph name="B" format="2">
  <advance width="806"/>
  <unicode hex="0042"/>
  <outline>
    <contour>
      <point x="30" y="0" type="line"/>
      <point x="546" y="0" type="line" smooth="yes"/>
      <point x="671" y="0"/>
      <point x="771" y="71"/>
      <point x="770" y="206" type="curve" smooth="yes"/>
      <point x="769" y="307"/>
      <point x="665" y="384"/>
      <point x="557" y="390" type="curve"/>
      <point x="635" y="399"/>
      <point x="748" y="441"/>
      <point x="747" y="545" type="curve" smooth="yes"/>
      <point x="746" y="644"/>
      <point x="657" y="700"/>
      <point x="555" y="700" type="curve" smooth="yes"/>
      <point x="30" y="700" type="line"/>
      <point x="30" y="610" type="line"/>
      <point x="110" y="610" type="line"/>
      <point x="110" y="90" type="line"/>
      <point x="30" y="90" type="line"/>
    </contour>
    <contour>
      <point x="350" y="610" type="line"/>
      <point x="400" y="610" type="line" smooth="yes"/>
      <point x="461" y="610"/>
      <point x="496" y="588"/>
      <point x="496" y="535" type="curve" smooth="yes"/>
      <point x="496" y="470"/>
      <point x="452" y="445"/>
      <point x="400" y="445" type="curve" smooth="yes"/>
      <point x="350" y="445" type="line"/>
    </contour>
    <contour>
      <point x="350" y="315" type="line"/>
      <point x="396" y="315" type="line" smooth="yes"/>
      <point x="467" y="315"/>
      <point x="521" y="273"/>
      <point x="521" y="197" type="curve" smooth="yes"/>
      <point x="521" y="115"/>
      <point x="455" y="90"/>
      <point x="397" y="90" type="curve" smooth="yes"/>
      <point x="350" y="90" type="line"/>
    </contour>
  </outline>
  <guideline angle="0" x="0" y="0"/>
</glyph>
<glyph name="C" format="2">
  <advance width="801"/>
  <unicode hex="0043"/>
  <guideline y="0"/>
  <outline>
    <contour>
      <point x="756" y="0" type="line"/>
      <point x="756" y="280" type="line"/>
      <point x="586" y="280" type="line"/>
      <point x="562" y="199"/>
      <point x="543" y="125"/>
      <point x="442" y="125" type="curve"/>
      <point x="343" y="125"/>
      <point x="290" y="222"/>
      <point x="290" y="372" type="curve" smooth="yes"/>
      <point x="290" y="522"/>
      <point x="343" y="603"/>
      <point x="429" y="603" type="curve"/>
      <point x="515" y="603"/>
      <point x="580" y="556"/>
      <point x="586" y="471" type="curve"/>
      <point x="756" y="471" type="line"/>
      <point x="756" y="700" type="line"/>
      <point x="586" y="700" type="line"/>
      <point x="586" y="650" type="line"/>
      <point x="519" y="683"/>
      <point x="462" y="704"/>
      <point x="334" y="700" type="curve" smooth="yes"/>
      <point x="129" y="694"/>
      <point x="11" y="562"/>
      <point x="16" y="341" type="curve" smooth="yes"/>
      <point x="21" y="106"/>
      <point x="160" y="16"/>
      <point x="343" y="0" type="curve"/>
      <point x="430" y="0"/>
      <point x="523" y="11"/>
      <point x="586" y="57" type="curve"/>
      <point x="586" y="0" type="line"/>
    </contour>
  </outline>
</glyph>
<glyph name="D" format="2">
  <advance width="802"/>
  <unicode hex="0044"/>
  <guideline y="700"/>
  <guideline y="0"/>
  <anchor x="385" y="284" name="center"/>
  <outline>
    <contour>
      <point x="25" y="0" type="line"/>
      <point x="25" y="80" type="line"/>
      <point x="105" y="80" type="line"/>
      <point x="105" y="620" type="line"/>
      <point x="25" y="620" type="line"/>
      <point x="25" y="700" type="line"/>
      <point x="454" y="700" type="line" smooth="yes"/>
      <point x="652" y="700"/>
      <point x="777" y="555"/>
      <point x="777" y="350" type="curve" smooth="yes"/>
      <point x="777" y="153"/>
      <point x="668" y="0"/>
      <point x="455" y="0" type="curve" smooth="yes"/>
    </contour>
    <contour>
      <point x="355" y="610" type="curve"/>
      <point x="355" y="90" type="line"/>
      <point x="490" y="90"/>
      <point x="534" y="160"/>
      <point x="527" y="358" type="curve" smooth="yes"/>
      <point x="520" y="552"/>
      <point x="486" y="610"/>
    </contour>
  </outline>
</glyph>
<glyph name="E" format="2">
  <advance width="850"/>
  <unicode hex="0045"/>
  <outline>
    <contour>
      <point x="30" y="0" type="line"/>
      <point x="820" y="0" type="line"/>
      <point x="820" y="250" type="line"/>
      <point x="670" y="250" type="line"/>
      <point x="670" y="100" type="line"/>
      <point x="360" y="100" type="line"/>
      <point x="360" y="300" type="line"/>
      <point x="560" y="300" type="line"/>
      <point x="560" y="450" type="line"/>
      <point x="360" y="450" type="line"/>
      <point x="360" y="610" type="line"/>
      <point x="640" y="610" type="line"/>
      <point x="640" y="475" type="line"/>
      <point x="790" y="475" type="line"/>
      <point x="790" y="700" type="line"/>
      <point x="30" y="700" type="line"/>
      <point x="30" y="610" type="line"/>
      <point x="110" y="610" type="line"/>
      <point x="110" y="100" type="line"/>
      <point x="30" y="100" type="line"/>
    </contour>
  </outline>
</glyph>
<glyph name="F" format="2">
  <advance width="810"/>
  <unicode hex="0046"/>
  <outline>
    <contour>
      <point x="30" y="0" type="line"/>
      <point x="460" y="0" type="line"/>
      <point x="460" y="90" type="line"/>
      <point x="360" y="90" type="line"/>
      <point x="360" y="300" type="line"/>
      <point x="560" y="300" type="line"/>
      <point x="560" y="450" type="line"/>
      <point x="360" y="450" type="line"/>
      <point x="360" y="610" type="line"/>
      <point x="640" y="610" type="line"/>
      <point x="640" y="475" type="line"/>
      <point x="790" y="475" type="line"/>
      <point x="790" y="700" type="line"/>
      <point x="30" y="700" type="line"/>
      <point x="30" y="610" type="line"/>
      <point x="110" y="610" type="line"/>
      <point x="110" y="90" type="line"/>
      <point x="30" y="90" type="line"/>
    </contour>
  </outline>
</glyph>
<glyph name="G" format="2">
  <advance width="823"/>
  <unicode hex="0047"/>
  <outline>
    <contour>
      <point x="745" y="0" type="line"/>
      <point x="735" y="260" type="line"/>
      <point x="813" y="260" type="line"/>
      <point x="813" y="390" type="line"/>
      <point x="437" y="390" type="line"/>
      <point x="437" y="260" type="line"/>
      <point x="514" y="260" type="line"/>
      <point x="513" y="210"/>
      <point x="495" y="124"/>
      <point x="418" y="125" type="curve"/>
      <point x="336" y="127"/>
      <point x="286" y="222"/>
      <point x="285" y="372" type="curve" smooth="yes"/>
      <point x="284" y="508"/>
      <point x="352" y="603"/>
      <point x="438" y="603" type="curve" smooth="yes"/>
      <point x="501" y="603"/>
      <point x="563" y="554"/>
      <point x="575" y="471" type="curve"/>
      <point x="725" y="471" type="line"/>
      <point x="725" y="700" type="line"/>
      <point x="575" y="700" type="line"/>
      <point x="575" y="645" type="line"/>
      <point x="520" y="684"/>
      <point x="447" y="705"/>
      <point x="333" y="700" type="curve" smooth="yes"/>
      <point x="146" y="692"/>
      <point x="30" y="572"/>
      <point x="30" y="341" type="curve" smooth="yes"/>
      <point x="30" y="101"/>
      <point x="162" y="7"/>
      <point x="332" y="0" type="curve"/>
      <point x="452" y="0"/>
      <point x="522" y="21"/>
      <point x="582" y="92" type="curve"/>
      <point x="605" y="0" type="line"/>
    </contour>
  </outline>
</glyph>
<glyph name="H" format="2">
  <advance width="950"/>
  <unicode hex="0048"/>
  <guideline y="700"/>
  <guideline x="-50"/>
  <guideline x="711"/>
  <guideline x="950"/>
  <outline>
    <contour>
      <point x="33" y="700" type="line"/>
      <point x="440" y="700" type="line"/>
      <point x="440" y="620" type="line"/>
      <point x="360" y="620" type="line"/>
      <point x="360" y="450" type="line"/>
      <point x="590" y="450" type="line"/>
      <point x="590" y="620" type="line"/>
      <point x="520" y="620" type="line"/>
      <point x="520" y="700" type="line"/>
      <point x="920" y="700" type="line"/>
      <point x="920" y="620" type="line"/>
      <point x="840" y="620" type="line"/>
      <point x="840" y="80" type="line"/>
      <point x="920" y="80" type="line"/>
      <point x="920" y="0" type="line"/>
      <point x="520" y="0" type="line"/>
      <point x="520" y="80" type="line"/>
      <point x="590" y="80" type="line"/>
      <point x="590" y="280" type="line"/>
      <point x="360" y="280" type="line"/>
      <point x="360" y="80" type="line"/>
      <point x="440" y="80" type="line"/>
      <point x="440" y="0" type="line"/>
      <point x="30" y="0" type="line"/>
      <point x="30" y="80" type="line"/>
      <point x="110" y="80" type="line"/>
      <point x="110" y="620" type="line"/>
      <point x="33" y="620" type="line"/>
    </contour>
  </outline>
</glyph>
<glyph name="I" format="2">
  <advance width="470"/>
  <unicode hex="0049"/>
  <guideline y="0"/>
  <outline>
    <contour>
      <point x="440" y="0" type="line"/>
      <point x="30" y="0" type="line"/>
      <point x="30" y="80" type="line"/>
      <point x="110" y="80" type="line"/>
      <point x="110" y="620" type="line"/>
      <point x="30" y="620" type="line"/>
      <point x="30" y="700" type="line"/>
      <point x="440" y="700" type="line"/>
      <point x="440" y="620" type="line"/>
      <point x="360" y="620" type="line" smooth="yes"/>
      <point x="360" y="620"/>
      <point x="360" y="214"/>
      <point x="360" y="80" type="curve" smooth="yes"/>
      <point x="360" y="80"/>
      <point x="440" y="80"/>
      <point x="440" y="80" type="curve"/>
    </contour>
  </outline>
</glyph>
<glyph name="J" format="2">
  <advance width="650"/>
  <unicode hex="004A"/>
  <outline>
    <contour>
      <point x="540" y="232" type="curve"/>
      <point x="537" y="83"/>
      <point x="504" y="0"/>
      <point x="293" y="0" type="curve" smooth="yes"/>
      <point x="70" y="0"/>
      <point x="20" y="93"/>
      <point x="20" y="275" type="curve"/>
      <point x="20" y="275"/>
      <point x="190" y="275"/>
      <point x="190" y="275" type="curve" smooth="yes"/>
      <point x="191" y="218"/>
      <point x="196" y="118"/>
      <point x="251" y="120" type="curve"/>
      <point x="279" y="120"/>
      <point x="290" y="144"/>
      <point x="290" y="162" type="curve" smooth="yes"/>
      <point x="293" y="323"/>
      <point x="290" y="468"/>
      <point x="290" y="620" type="curve"/>
      <point x="210" y="620" type="line"/>
      <point x="210" y="700" type="line"/>
      <point x="620" y="700" type="line"/>
      <point x="620" y="620" type="line"/>
      <point x="540" y="620" type="line"/>
      <point x="540" y="620"/>
      <point x="540" y="453"/>
    </contour>
  </outline>
</glyph>
<glyph name="K" format="2">
  <advance width="975"/>
  <unicode hex="004B"/>
  <outline>
    <contour>
      <point x="510" y="0" type="line"/>
      <point x="510" y="80" type="line"/>
      <point x="600" y="80" type="line"/>
      <point x="600" y="80"/>
      <point x="421" y="302"/>
      <point x="421" y="302" type="curve"/>
      <point x="360" y="260" type="line"/>
      <point x="360" y="80" type="line"/>
      <point x="440" y="80" type="line"/>
      <point x="440" y="0" type="line"/>
      <point x="30" y="0" type="line"/>
      <point x="30" y="80" type="line"/>
      <point x="110" y="80" type="line"/>
      <point x="110" y="620" type="line"/>
      <point x="30" y="620" type="line"/>
      <point x="30" y="700" type="line"/>
      <point x="440" y="700" type="line"/>
      <point x="440" y="620" type="line"/>
      <point x="360" y="620" type="line"/>
      <point x="360" y="440" type="line"/>
      <point x="615" y="620" type="line"/>
      <point x="510" y="620" type="line"/>
      <point x="510" y="700" type="line"/>
      <point x="920" y="700" type="line"/>
      <point x="920" y="620" type="line"/>
      <point x="860" y="620" type="line"/>
      <point x="860" y="620"/>
      <point x="598" y="408"/>
      <point x="598" y="408" type="curve"/>
      <point x="870" y="80" type="line"/>
      <point x="950" y="80" type="line"/>
      <point x="950" y="0" type="line"/>
    </contour>
  </outline>
</glyph>
<glyph name="L" format="2">
  <advance width="860"/>
  <unicode hex="004C"/>
  <outline>
    <contour>
      <point x="30" y="0" type="line"/>
      <point x="830" y="0" type="line"/>
      <point x="830" y="250" type="line"/>
      <point x="680" y="250" type="line"/>
      <point x="680" y="100" type="line"/>
      <point x="360" y="100" type="line"/>
      <point x="360" y="300" type="line"/>
      <point x="360" y="450" type="line"/>
      <point x="360" y="620" type="line"/>
      <point x="440" y="620" type="line"/>
      <point x="440" y="700" type="line"/>
      <point x="30" y="700" type="line"/>
      <point x="30" y="620" type="line"/>
      <point x="110" y="620" type="line"/>
      <point x="110" y="100" type="line"/>
      <point x="30" y="100" type="line"/>
    </contour>
  </outline>
</glyph>
<glyph name="M" format="2">
  <advance width="1140"/>
  <unicode hex="004D"/>
  <outline>
    <contour>
      <point x="30" y="0" type="line"/>
      <point x="30" y="80" type="line"/>
      <point x="110" y="80" type="line"/>
      <point x="110" y="620" type="line"/>
      <point x="30" y="620" type="line"/>
      <point x="30" y="700" type="line"/>
      <point x="470" y="700" type="line"/>
      <point x="590" y="430" type="line"/>
      <point x="698" y="700" type="line"/>
      <point x="1110" y="700" type="line"/>
      <point x="1110" y="620" type="line"/>
      <point x="1030" y="620" type="line"/>
      <point x="1030" y="80" type="line"/>
      <point x="1110" y="80" type="line"/>
      <point x="1110" y="0" type="line"/>
      <point x="690" y="0" type="line"/>
      <point x="690" y="80" type="line"/>
      <point x="770" y="80" type="line"/>
      <point x="770" y="470" type="line"/>
      <point x="600" y="0" type="line"/>
      <point x="440" y="0" type="line"/>
      <point x="265" y="470" type="line"/>
      <point x="265" y="80" type="line"/>
      <point x="345" y="80" type="line"/>
      <point x="345" y="0" type="line"/>
    </contour>
  </outline>
</glyph>
<glyph name="N" format="2">
  <advance width="910"/>
  <unicode hex="004E"/>
  <outline>
    <contour>
      <point x="30" y="0" type="line"/>
      <point x="30" y="80" type="line"/>
      <point x="90" y="80" type="line"/>
      <point x="90" y="620" type="line"/>
      <point x="30" y="620" type="line"/>
      <point x="30" y="700" type="line"/>
      <point x="360" y="700" type="line"/>
      <point x="680" y="350" type="line"/>
      <point x="680" y="620" type="line"/>
      <point x="620" y="620" type="line"/>
      <point x="620" y="700" type="line"/>
      <point x="890" y="700" type="line"/>
      <point x="890" y="620" type="line"/>
      <point x="830" y="620" type="line"/>
      <point x="830" y="0" type="line"/>
      <point x="600" y="0" type="line"/>
      <point x="240" y="420" type="line"/>
      <point x="240" y="80" type="line"/>
      <point x="300" y="80" type="line"/>
      <point x="300" y="0" type="line"/>
    </contour>
  </outline>
</glyph>
<glyph name="O" format="2">
  <advance width="801"/>
  <unicode hex="004F"/>
  <outline>
    <contour>
      <point x="400" y="-20" type="curve" smooth="yes"/>
      <point x="622" y="-20"/>
      <point x="783" y="138"/>
      <point x="780" y="355" type="curve" smooth="yes"/>
      <point x="777" y="597"/>
      <point x="596" y="718"/>
      <point x="400" y="719" type="curve" smooth="yes"/>
      <point x="207" y="720"/>
      <point x="20" y="590"/>
      <point x="20" y="355" type="curve" smooth="yes"/>
      <point x="20" y="140"/>
      <point x="189" y="-20"/>
    </contour>
    <contour>
      <point x="399" y="600" type="curve" smooth="yes"/>
      <point x="460" y="600"/>
      <point x="490" y="539"/>
      <point x="490" y="487" type="curve"/>
      <point x="494" y="375"/>
      <point x="494" y="257"/>
      <point x="490" y="216" type="curve" smooth="yes"/>
      <point x="484" y="153"/>
      <point x="445" y="110"/>
      <point x="400" y="110" type="curve"/>
      <point x="352" y="112"/>
      <point x="315" y="153"/>
      <point x="309" y="216" type="curve" smooth="yes"/>
      <point x="305" y="257"/>
      <point x="309" y="375"/>
      <point x="309" y="487" type="curve" smooth="yes"/>
      <point x="309" y="539"/>
      <point x="343" y="600"/>
    </contour>
  </outline>
  <guideline angle="0" x="0" y="700"/>
  <guideline angle="90" x="24" y="0"/>
  <guideline angle="90" x="777" y="0"/>
  <guideline angle="90" x="400" y="0"/>
</glyph>
<glyph name="P" format="2">
  <advance width="771"/>
  <unicode hex="0050"/>
  <outline>
    <contour>
      <point x="325" y="293" type="line"/>
      <point x="506" y="293" type="line" smooth="yes"/>
      <point x="661" y="293"/>
      <point x="756" y="380"/>
      <point x="756" y="500" type="curve" smooth="yes"/>
      <point x="756" y="627"/>
      <point x="685" y="700"/>
      <point x="516" y="700" type="curve" smooth="yes"/>
      <point x="20" y="700" type="line"/>
      <point x="20" y="610" type="line"/>
      <point x="100" y="610" type="line"/>
      <point x="100" y="90" type="line"/>
      <point x="20" y="90" type="line"/>
      <point x="20" y="0" type="line"/>
      <point x="430" y="0" type="line"/>
      <point x="430" y="90" type="line"/>
      <point x="340" y="90" type="line"/>
      <point x="340" y="610" type="line"/>
      <point x="395" y="610" type="line" smooth="yes"/>
      <point x="466" y="610"/>
      <point x="540" y="602"/>
      <point x="540" y="515" type="curve" smooth="yes"/>
      <point x="540" y="448"/>
      <point x="477" y="423"/>
      <point x="400" y="423" type="curve" smooth="yes"/>
      <point x="326" y="423" type="line"/>
    </contour>
  </outline>
</glyph>
<glyph name="Q" format="2">
  <advance width="865"/>
  <unicode hex="0051"/>
  <outline>
    <contour>
      <point x="690" y="118" type="curve"/>
      <point x="733" y="87"/>
      <point x="776" y="89"/>
      <point x="819" y="94" type="curve"/>
      <point x="835" y="30" type="line"/>
      <point x="788" y="6"/>
      <point x="696" y="-20"/>
      <point x="604" y="44" type="curve"/>
      <point x="546" y="9"/>
      <point x="475" y="-10"/>
      <point x="395" y="-10" type="curve" smooth="yes"/>
      <point x="184" y="-10"/>
      <point x="20" y="140"/>
      <point x="20" y="355" type="curve" smooth="yes"/>
      <point x="20" y="825"/>
      <point x="763" y="825"/>
      <point x="769" y="355" type="curve" smooth="yes"/>
      <point x="770" y="255"/>
      <point x="742" y="178"/>
    </contour>
    <contour>
      <point x="485" y="227" type="curve"/>
      <point x="485" y="227"/>
      <point x="485" y="227"/>
    </contour>
    <contour>
      <point x="374" y="241" type="line"/>
      <point x="421" y="248"/>
      <point x="449" y="248"/>
      <point x="485" y="234" type="curve"/>
      <point x="489" y="275"/>
      <point x="489" y="376"/>
      <point x="485" y="487" type="curve"/>
      <point x="485" y="539"/>
      <point x="455" y="600"/>
      <point x="394" y="600" type="curve" smooth="yes"/>
      <point x="338" y="600"/>
      <point x="304" y="539"/>
      <point x="304" y="487" type="curve" smooth="yes"/>
      <point x="304" y="375"/>
      <point x="300" y="257"/>
      <point x="304" y="216" type="curve" smooth="yes"/>
      <point x="310" y="153"/>
      <point x="347" y="112"/>
      <point x="395" y="110" type="curve"/>
      <point x="425" y="110"/>
      <point x="452" y="129"/>
      <point x="469" y="160" type="curve"/>
      <point x="439" y="180"/>
      <point x="408" y="180"/>
      <point x="384" y="175" type="curve"/>
    </contour>
  </outline>
</glyph>
<glyph name="R" format="2">
  <advance width="917"/>
  <unicode hex="0052"/>
  <outline>
    <contour>
      <point x="345" y="610" type="line"/>
      <point x="345" y="425" type="line"/>
      <point x="441" y="425" type="line" smooth="yes"/>
      <point x="513" y="425"/>
      <point x="550" y="461"/>
      <point x="550" y="520" type="curve" smooth="yes"/>
      <point x="550" y="592"/>
      <point x="489" y="610"/>
      <point x="421" y="610" type="curve" smooth="yes"/>
    </contour>
    <contour>
      <point x="25" y="0" type="line"/>
      <point x="25" y="90" type="line"/>
      <point x="105" y="90" type="line"/>
      <point x="105" y="610" type="line"/>
      <point x="25" y="610" type="line"/>
      <point x="25" y="700" type="line"/>
      <point x="565" y="700" type="line" smooth="yes"/>
      <point x="685" y="700"/>
      <point x="805" y="662"/>
      <point x="805" y="541" type="curve" smooth="yes"/>
      <point x="805" y="397"/>
      <point x="665" y="370"/>
      <point x="665" y="370" type="curve"/>
      <point x="728" y="361"/>
      <point x="789" y="328"/>
      <point x="789" y="204" type="curve" smooth="yes"/>
      <point x="789" y="123"/>
      <point x="887" y="120"/>
      <point x="887" y="120" type="curve"/>
      <point x="887" y="0" type="line"/>
      <point x="697" y="0" type="line" smooth="yes"/>
      <point x="630" y="0"/>
      <point x="559" y="62"/>
      <point x="551" y="150" type="curve" smooth="yes"/>
      <point x="538" y="296"/>
      <point x="461" y="295"/>
      <point x="345" y="295" type="curve"/>
      <point x="345" y="90" type="line"/>
      <point x="425" y="90" type="line"/>
      <point x="425" y="0" type="line"/>
    </contour>
  </outline>
</glyph>
<glyph name="S" format="2">
  <advance width="756"/>
  <unicode hex="0053"/>
  <outline>
    <contour>
      <point x="30" y="0" type="line"/>
      <point x="160" y="0" type="line"/>
      <point x="160" y="60" type="line"/>
      <point x="218" y="19"/>
      <point x="310" y="0"/>
      <point x="429" y="0" type="curve"/>
      <point x="625" y="0"/>
      <point x="736" y="109"/>
      <point x="736" y="238" type="curve" smooth="yes"/>
      <point x="736" y="349"/>
      <point x="641" y="451"/>
      <point x="395" y="460" type="curve" smooth="yes"/>
      <point x="191" y="467"/>
      <point x="185" y="602"/>
      <point x="395" y="591" type="curve"/>
      <point x="480" y="582"/>
      <point x="553" y="538"/>
      <point x="560" y="480" type="curve"/>
      <point x="690" y="480" type="line"/>
      <point x="690" y="700" type="line"/>
      <point x="560" y="700" type="line"/>
      <point x="560" y="640" type="line"/>
      <point x="522" y="665"/>
      <point x="453" y="700"/>
      <point x="293" y="700" type="curve" smooth="yes"/>
      <point x="137" y="700"/>
      <point x="30" y="607"/>
      <point x="30" y="500" type="curve" smooth="yes"/>
      <point x="30" y="323"/>
      <point x="162" y="307"/>
      <point x="317" y="270" type="curve" smooth="yes"/>
      <point x="380" y="255"/>
      <point x="522" y="260"/>
      <point x="522" y="194" type="curve" smooth="yes"/>
      <point x="522" y="148"/>
      <point x="469" y="120"/>
      <point x="375" y="120" type="curve" smooth="yes"/>
      <point x="244" y="120"/>
      <point x="160" y="233"/>
      <point x="160" y="233" type="curve"/>
      <point x="30" y="233" type="line"/>
    </contour>
  </outline>
</glyph>
<glyph name="T" format="2">
  <advance width="800"/>
  <unicode hex="0054"/>
  <outline>
    <contour>
      <point x="30" y="700" type="line"/>
      <point x="770" y="700" type="line"/>
      <point x="770" y="455" type="line"/>
      <point x="635" y="455" type="line"/>
      <point x="635" y="610" type="line"/>
      <point x="525" y="610" type="line"/>
      <point x="525" y="80" type="line"/>
      <point x="605" y="80" type="line"/>
      <point x="605" y="0" type="line"/>
      <point x="195" y="0" type="line"/>
      <point x="195" y="80" type="line"/>
      <point x="275" y="80" type="line"/>
      <point x="275" y="610" type="line"/>
      <point x="165" y="610" type="line"/>
      <point x="165" y="455" type="line"/>
      <point x="30" y="455" type="line"/>
    </contour>
  </outline>
</glyph>
<glyph name="U" format="2">
  <advance width="901"/>
  <unicode hex="0055"/>
  <guideline y="0"/>
  <outline>
    <contour>
      <point x="15" y="700" type="line"/>
      <point x="425" y="700" type="line"/>
      <point x="425" y="620" type="line"/>
      <point x="345" y="620" type="line"/>
      <point x="345" y="270" type="line" smooth="yes"/>
      <point x="345" y="187"/>
      <point x="378" y="122"/>
      <point x="501" y="122" type="curve" smooth="yes"/>
      <point x="585" y="122"/>
      <point x="635" y="198"/>
      <point x="635" y="270" type="curve" smooth="yes"/>
      <point x="635" y="620" type="line"/>
      <point x="555" y="620" type="line"/>
      <point x="555" y="700" type="line"/>
      <point x="871" y="700" type="line"/>
      <point x="871" y="620" type="line"/>
      <point x="791" y="620" type="line"/>
      <point x="791" y="237" type="line" smooth="yes"/>
      <point x="791" y="115"/>
      <point x="723" y="0"/>
      <point x="502" y="0" type="curve" smooth="yes"/>
      <point x="420" y="0"/>
      <point x="379" y="0"/>
      <point x="327" y="0" type="curve" smooth="yes"/>
      <point x="191" y="0"/>
      <point x="95" y="115"/>
      <point x="95" y="237" type="curve" smooth="yes"/>
      <point x="95" y="620" type="line"/>
      <point x="15" y="620" type="line"/>
    </contour>
  </outline>
</glyph>
<glyph name="V" format="2">
  <advance width="942"/>
  <unicode hex="0056"/>
  <guideline y="0"/>
  <anchor x="580" y="620" name="center"/>
  <outline>
    <contour>
      <point x="20" y="700" type="line"/>
      <point x="484" y="700" type="line"/>
      <point x="484" y="620" type="line"/>
      <point x="384" y="620" type="line"/>
      <point x="540" y="240" type="line"/>
      <point x="692" y="620" type="line"/>
      <point x="602" y="620" type="line"/>
      <point x="602" y="700" type="line"/>
      <point x="922" y="700" type="line"/>
      <point x="922" y="620" type="line"/>
      <point x="842" y="620" type="line"/>
      <point x="610" y="0" type="line"/>
      <point x="360" y="0" type="line"/>
      <point x="100" y="620" type="line"/>
      <point x="20" y="620" type="line"/>
    </contour>
  </outline>
</glyph>
<glyph name="W" format="2">
  <advance width="1422"/>
  <unicode hex="0057"/>
  <outline>
    <contour>
      <point x="954" y="700" type="line"/>
      <point x="954" y="620" type="line"/>
      <point x="854" y="620" type="line"/>
      <point x="1010" y="240" type="line"/>
      <point x="1162" y="620" type="line"/>
      <point x="1072" y="620" type="line"/>
      <point x="1072" y="700" type="line"/>
      <point x="1392" y="700" type="line"/>
      <point x="1392" y="620" type="line"/>
      <point x="1312" y="620" type="line"/>
      <point x="1080" y="0" type="line"/>
      <point x="830" y="0" type="line"/>
      <point x="721" y="270" type="line"/>
      <point x="620" y="0" type="line"/>
      <point x="370" y="0" type="line"/>
      <point x="110" y="620" type="line"/>
      <point x="30" y="620" type="line"/>
      <point x="30" y="700" type="line"/>
      <point x="494" y="700" type="line"/>
      <point x="494" y="620" type="line"/>
      <point x="394" y="620" type="line"/>
      <point x="550" y="240" type="line"/>
      <point x="702" y="620" type="line"/>
      <point x="612" y="620" type="line"/>
      <point x="612" y="700" type="line"/>
    </contour>
  </outline>
</glyph>
<glyph name="X" format="2">
  <advance width="943"/>
  <unicode hex="0058"/>
  <outline>
    <contour>
      <point x="25" y="0" type="line"/>
      <point x="25" y="80" type="line"/>
      <point x="75" y="80" type="line"/>
      <point x="328" y="339" type="line"/>
      <point x="85" y="620" type="line"/>
      <point x="25" y="620" type="line"/>
      <point x="25" y="700" type="line"/>
      <point x="455" y="700" type="line"/>
      <point x="455" y="620" type="line"/>
      <point x="365" y="620" type="line"/>
      <point x="477" y="482" type="line"/>
      <point x="613" y="620" type="line"/>
      <point x="501" y="620" type="line"/>
      <point x="501" y="700" type="line"/>
      <point x="868" y="700" type="line"/>
      <point x="868" y="620" type="line"/>
      <point x="782" y="620" type="line"/>
      <point x="566" y="390" type="line"/>
      <point x="863" y="80" type="line"/>
      <point x="923" y="80" type="line"/>
      <point x="923" y="0" type="line"/>
      <point x="472" y="0" type="line"/>
      <point x="472" y="80" type="line"/>
      <point x="582" y="80" type="line"/>
      <point x="426" y="236" type="line"/>
      <point x="267" y="78" type="line"/>
      <point x="377" y="78" type="line"/>
      <point x="377" y="0" type="line"/>
    </contour>
  </outline>
</glyph>
<glyph name="Y" format="2">
  <advance width="906"/>
  <unicode hex="0059"/>
  <outline>
    <contour>
      <point x="15" y="700" type="line"/>
      <point x="461" y="700" type="line"/>
      <point x="461" y="620" type="line"/>
      <point x="381" y="620" type="line"/>
      <point x="491" y="419" type="line"/>
      <point x="613" y="620" type="line"/>
      <point x="533" y="620" type="line"/>
      <point x="533" y="700" type="line"/>
      <point x="891" y="700" type="line"/>
      <point x="891" y="620" type="line"/>
      <point x="811" y="620" type="line"/>
      <point x="586" y="256" type="line"/>
      <point x="586" y="80" type="line"/>
      <point x="676" y="80" type="line"/>
      <point x="676" y="0" type="line"/>
      <point x="246" y="0" type="line"/>
      <point x="246" y="80" type="line"/>
      <point x="336" y="80" type="line"/>
      <point x="336" y="256" type="line"/>
      <point x="115" y="620" type="line"/>
      <point x="15" y="620" type="line"/>
    </contour>
  </outline>
  <guideline angle="0" x="0" y="0"/>
</glyph>
<glyph name="Z" format="2">
  <advance width="800"/>
  <unicode hex="005A"/>
  <guideline y="0"/>
  <outline>
    <contour>
      <point x="30" y="0" type="line"/>
      <point x="30" y="80" type="line"/>
      <point x="459" y="620" type="line"/>
      <point x="192" y="620" type="line"/>
      <point x="192" y="429" type="line"/>
      <point x="30" y="429" type="line"/>
      <point x="30" y="700" type="line"/>
      <point x="770" y="700" type="line"/>
      <point x="770" y="620" type="line"/>
      <point x="343" y="80" type="line"/>
      <point x="587" y="80" type="line"/>
      <point x="587" y="257" type="line"/>
      <point x="770" y="257" type="line"/>
      <point x="770" y="0" type="line"/>
    </contour>
  </outline>
</glyph>
<glyph name="a" format="2">
  <advance width="673"/>
  <unicode hex="0061"/>
  <guideline y="500"/>
  <guideline y="0"/>
  <outline>
    <contour>
      <point x="217" y="0" type="curve"/>
      <point x="96" y="0"/>
      <point x="30" y="49"/>
      <point x="30" y="129" type="curve" smooth="yes"/>
      <point x="30" y="223"/>
      <point x="96" y="250"/>
      <point x="158" y="259" type="curve" smooth="yes"/>
      <point x="230" y="269"/>
      <point x="333" y="282"/>
      <point x="376" y="288" type="curve" smooth="yes"/>
      <point x="376" y="364"/>
      <point x="381" y="410"/>
      <point x="304" y="410" type="curve" smooth="yes"/>
      <point x="274" y="410"/>
      <point x="230" y="407"/>
      <point x="230" y="328" type="curve"/>
      <point x="38" y="328" type="line"/>
      <point x="38" y="484"/>
      <point x="160" y="510"/>
      <point x="318" y="510" type="curve" smooth="yes"/>
      <point x="458" y="510"/>
      <point x="556" y="470"/>
      <point x="570" y="336" type="curve"/>
      <point x="574" y="294"/>
      <point x="564" y="127"/>
      <point x="584" y="102" type="curve"/>
      <point x="599" y="84"/>
      <point x="624" y="85"/>
      <point x="643" y="98" type="curve"/>
      <point x="643" y="39" type="line"/>
      <point x="621" y="19"/>
      <point x="596" y="0"/>
      <point x="509" y="0" type="curve" smooth="yes"/>
      <point x="422" y="0"/>
      <point x="394" y="27"/>
      <point x="377" y="47" type="curve"/>
      <point x="359" y="31"/>
      <point x="338" y="0"/>
    </contour>
    <contour>
      <point x="377" y="219" type="line"/>
      <point x="323" y="205"/>
      <point x="230" y="210"/>
      <point x="230" y="137" type="curve" smooth="yes"/>
      <point x="230" y="73"/>
      <point x="333" y="87"/>
      <point x="377" y="126" type="curve"/>
    </contour>
  </outline>
</glyph>
<glyph name="b" format="2">
  <advance width="658"/>
  <unicode hex="0062"/>
  <outline>
    <contour>
      <point x="25" y="0" type="line"/>
      <point x="25" y="5"/>
      <point x="25" y="47"/>
      <point x="25" y="70" type="curve"/>
      <point x="85" y="70" type="line"/>
      <point x="85" y="625" type="line"/>
      <point x="25" y="625" type="line"/>
      <point x="25" y="700" type="line"/>
      <point x="285" y="700" type="line"/>
      <point x="285" y="439" type="line"/>
      <point x="285" y="439"/>
      <point x="342" y="504"/>
      <point x="422" y="504" type="curve" smooth="yes"/>
      <point x="502" y="504"/>
      <point x="636" y="448"/>
      <point x="636" y="258" type="curve" smooth="yes"/>
      <point x="636" y="68"/>
      <point x="532" y="-7"/>
      <point x="432" y="-7" type="curve" smooth="yes"/>
      <point x="332" y="-7"/>
      <point x="285" y="30"/>
      <point x="285" y="30" type="curve" smooth="yes"/>
      <point x="285" y="0" type="line"/>
    </contour>
    <contour>
      <point x="285" y="361" type="curve"/>
      <point x="285" y="114" type="line" smooth="yes"/>
      <point x="285" y="101"/>
      <point x="323" y="80"/>
      <point x="360" y="80" type="curve" smooth="yes"/>
      <point x="397" y="80"/>
      <point x="433" y="100"/>
      <point x="433" y="153" type="curve"/>
      <point x="433" y="347" type="line"/>
      <point x="433" y="355"/>
      <point x="414" y="405"/>
      <point x="355" y="405" type="curve" smooth="yes"/>
      <point x="320" y="405"/>
      <point x="285" y="364"/>
    </contour>
  </outline>
  <guideline angle="90" x="289" y="0"/>
  <guideline angle="0" x="0" y="80"/>
  <guideline angle="0" x="0" y="405"/>
  <guideline angle="90" x="289" y="0"/>
  <guideline angle="0" x="0" y="700"/>
  <guideline angle="0" x="0" y="625"/>
</glyph>
<glyph name="c" format="2">
  <advance width="588"/>
  <unicode hex="0063"/>
  <guideline y="0"/>
  <outline>
    <contour>
      <point x="395" y="325" type="curve"/>
      <point x="558" y="325" type="line"/>
      <point x="542" y="444"/>
      <point x="447" y="510"/>
      <point x="291" y="510" type="curve" smooth="yes"/>
      <point x="117" y="510"/>
      <point x="20" y="417"/>
      <point x="20" y="250" type="curve" smooth="yes"/>
      <point x="20" y="83"/>
      <point x="118" y="-10"/>
      <point x="293" y="-10" type="curve" smooth="yes"/>
      <point x="440" y="-10"/>
      <point x="544" y="65"/>
      <point x="563" y="185" type="curve"/>
      <point x="481" y="185" type="line"/>
      <point x="454" y="117"/>
      <point x="407" y="83"/>
      <point x="341" y="83" type="curve" smooth="yes"/>
      <point x="267" y="83"/>
      <point x="225" y="143"/>
      <point x="225" y="250" type="curve" smooth="yes"/>
      <point x="225" y="361"/>
      <point x="254" y="416"/>
      <point x="311" y="416" type="curve" smooth="yes"/>
      <point x="360" y="416"/>
      <point x="390" y="383"/>
    </contour>
  </outline>
</glyph>
<glyph name="d" format="2">
  <advance width="653"/>
  <unicode hex="0064"/>
  <guideline y="0"/>
  <guideline y="699"/>
  <guideline x="573"/>
  <guideline y="-10"/>
  <guideline x="305"/>
  <guideline x="226"/>
  <anchor x="1998" y="2043" name="top"/>
  <anchor x="1998" y="-4652" name="bottom"/>
  <outline>
    <contour>
      <point x="373" y="40" type="line"/>
      <point x="295" y="-16"/>
      <point x="230" y="-10"/>
      <point x="230" y="-10" type="curve"/>
      <point x="109" y="-10"/>
      <point x="30" y="98"/>
      <point x="30" y="258" type="curve" smooth="yes"/>
      <point x="30" y="418"/>
      <point x="126" y="500"/>
      <point x="250" y="500" type="curve" smooth="yes"/>
      <point x="307" y="500"/>
      <point x="354" y="466"/>
      <point x="371" y="440" type="curve"/>
      <point x="373" y="625" type="line"/>
      <point x="313" y="625" type="line"/>
      <point x="313" y="700" type="line"/>
      <point x="573" y="700" type="line"/>
      <point x="573" y="70" type="line"/>
      <point x="633" y="71" type="line"/>
      <point x="633" y="0" type="line"/>
      <point x="373" y="0" type="line"/>
    </contour>
    <contour>
      <point x="372" y="114" type="curve"/>
      <point x="372" y="361" type="line"/>
      <point x="367" y="376"/>
      <point x="331" y="401"/>
      <point x="305" y="401" type="curve" smooth="yes"/>
      <point x="279" y="401"/>
      <point x="226" y="407"/>
      <point x="226" y="267" type="curve"/>
      <point x="226" y="127"/>
      <point x="245" y="84"/>
      <point x="305" y="84" type="curve" smooth="yes"/>
      <point x="365" y="84"/>
      <point x="372" y="114"/>
    </contour>
  </outline>
</glyph>
<glyph name="e" format="2">
  <advance width="576"/>
  <unicode hex="0065"/>
  <guideline y="0"/>
  <guideline y="499"/>
  <outline>
    <contour>
      <point x="213" y="231" type="curve"/>
      <point x="556" y="231" type="line"/>
      <point x="556" y="410"/>
      <point x="482" y="510"/>
      <point x="288" y="510" type="curve" smooth="yes"/>
      <point x="113" y="510"/>
      <point x="15" y="409"/>
      <point x="15" y="257" type="curve"/>
      <point x="15" y="105"/>
      <point x="107" y="0"/>
      <point x="294" y="0" type="curve"/>
      <point x="420" y="0"/>
      <point x="526" y="56"/>
      <point x="556" y="192" type="curve"/>
      <point x="541" y="193"/>
      <point x="492" y="192"/>
      <point x="487" y="192" type="curve"/>
      <point x="484" y="192"/>
      <point x="453" y="87"/>
      <point x="348" y="87" type="curve" smooth="yes"/>
      <point x="243" y="87"/>
      <point x="216" y="156"/>
    </contour>
    <contour>
      <point x="285" y="417" type="curve" smooth="yes"/>
      <point x="337" y="417"/>
      <point x="356" y="347"/>
      <point x="356" y="296" type="curve"/>
      <point x="304" y="296"/>
      <point x="213" y="296"/>
      <point x="213" y="296" type="curve" smooth="yes"/>
      <point x="213" y="347"/>
      <point x="228" y="417"/>
    </contour>
  </outline>
</glyph>
<glyph name="f" format="2">
  <advance width="409"/>
  <unicode hex="0066"/>
  <guideline y="0"/>
  <guideline y="701"/>
  <guideline x="93"/>
  <guideline y="75"/>
  <outline>
    <contour>
      <point x="303" y="553" type="curve"/>
      <point x="370" y="553" type="line"/>
      <point x="370" y="668"/>
      <point x="343" y="717"/>
      <point x="236" y="717" type="curve" smooth="yes"/>
      <point x="79" y="717"/>
      <point x="95" y="624"/>
      <point x="95" y="498" type="curve"/>
      <point x="30" y="498" type="line"/>
      <point x="30" y="415" type="line"/>
      <point x="95" y="415" type="line"/>
      <point x="98" y="75" type="line"/>
      <point x="35" y="75" type="line"/>
      <point x="35" y="2" type="line"/>
      <point x="374" y="2" type="line"/>
      <point x="374" y="75" type="line"/>
      <point x="301" y="75" type="line"/>
      <point x="301" y="420"/>
      <point x="302" y="314"/>
      <point x="301" y="417" type="curve"/>
      <point x="369" y="417" type="line"/>
      <point x="369" y="444"/>
      <point x="371" y="496"/>
      <point x="369" y="498" type="curve" smooth="yes"/>
      <point x="367" y="500"/>
      <point x="364" y="500"/>
      <point x="358" y="498" type="curve" smooth="yes"/>
      <point x="352" y="496"/>
      <point x="297" y="489"/>
      <point x="272" y="517" type="curve" smooth="yes"/>
      <point x="247" y="545"/>
      <point x="241" y="614"/>
      <point x="271" y="622" type="curve" smooth="yes"/>
      <point x="312" y="633"/>
      <point x="303" y="572"/>
    </contour>
  </outline>
</glyph>
<glyph name="g" format="2">
  <advance width="646"/>
  <unicode hex="0067"/>
  <guideline y="0"/>
  <guideline y="498"/>
  <guideline x="570"/>
  <guideline x="621"/>
  <guideline x="367"/>
  <outline>
    <contour>
      <point x="368" y="498" type="line"/>
      <point x="621" y="500" type="line"/>
      <point x="621" y="423" type="line"/>
      <point x="570" y="423" type="line"/>
      <point x="570" y="183"/>
      <point x="570" y="-63"/>
      <point x="570" y="-63" type="curve" smooth="yes"/>
      <point x="561" y="-162"/>
      <point x="489" y="-221"/>
      <point x="334" y="-221" type="curve" smooth="yes"/>
      <point x="239" y="-221"/>
      <point x="166" y="-217"/>
      <point x="125" y="-195" type="curve" smooth="yes"/>
      <point x="30" y="-145"/>
      <point x="44" y="-52"/>
      <point x="44" y="-52" type="curve"/>
      <point x="44" y="-52"/>
      <point x="165" y="-51"/>
      <point x="225" y="-51" type="curve"/>
      <point x="228" y="-93"/>
      <point x="237" y="-132"/>
      <point x="311" y="-132" type="curve" smooth="yes"/>
      <point x="399" y="-132"/>
      <point x="375" y="0"/>
      <point x="375" y="54" type="curve" smooth="yes"/>
      <point x="375" y="74"/>
      <point x="352" y="-4"/>
      <point x="242" y="-4" type="curve" smooth="yes"/>
      <point x="133" y="-4"/>
      <point x="30" y="57"/>
      <point x="30" y="247" type="curve" smooth="yes"/>
      <point x="30" y="437"/>
      <point x="143" y="501"/>
      <point x="226" y="501" type="curve" smooth="yes"/>
      <point x="309" y="501"/>
      <point x="347" y="468"/>
      <point x="367" y="446" type="curve"/>
    </contour>
    <contour>
      <point x="369" y="385" type="line"/>
      <point x="353" y="408"/>
      <point x="308" y="411"/>
      <point x="298" y="411" type="curve" smooth="yes"/>
      <point x="210" y="411"/>
      <point x="226" y="288"/>
      <point x="226" y="235" type="curve" smooth="yes"/>
      <point x="227" y="149"/>
      <point x="228" y="79"/>
      <point x="299" y="79" type="curve" smooth="yes"/>
      <point x="319" y="79"/>
      <point x="345" y="89"/>
      <point x="375" y="113" type="curve"/>
      <point x="375" y="116" type="line"/>
    </contour>
  </outline>
</glyph>
<glyph name="h" format="2">
  <advance width="714"/>
  <unicode hex="0068"/>
  <outline>
    <contour>
      <point x="285" y="700" type="line"/>
      <point x="25" y="700" type="line"/>
      <point x="25" y="625" type="line"/>
      <point x="85" y="625" type="line"/>
      <point x="85" y="70" type="line"/>
      <point x="25" y="70" type="line"/>
      <point x="25" y="0" type="line"/>
      <point x="345" y="0" type="line"/>
      <point x="345" y="70" type="line"/>
      <point x="285" y="70" type="line"/>
    </contour>
    <contour>
      <point x="237" y="414" type="curve"/>
      <point x="237" y="318" type="line"/>
      <point x="274" y="360"/>
      <point x="328" y="392"/>
      <point x="353" y="392" type="curve" smooth="yes"/>
      <point x="404" y="393"/>
      <point x="427" y="354"/>
      <point x="426" y="277" type="curve" smooth="yes"/>
      <point x="424" y="70" type="line"/>
      <point x="364" y="70" type="line"/>
      <point x="364" y="0" type="line"/>
      <point x="684" y="0" type="line"/>
      <point x="684" y="70" type="line"/>
      <point x="624" y="70" type="line"/>
      <point x="624" y="359" type="line"/>
      <point x="622" y="425"/>
      <point x="580" y="504"/>
      <point x="460" y="504" type="curve" smooth="yes"/>
      <point x="340" y="504"/>
      <point x="287" y="457"/>
    </contour>
  </outline>
  <guideline angle="0" x="0" y="0"/>
  <guideline angle="0" x="0" y="70"/>
  <guideline angle="0" x="0" y="700"/>
  <guideline angle="90" x="25" y="0"/>
</glyph>
<glyph name="i" format="2">
  <advance width="407"/>
  <unicode hex="0069"/>
  <outline>
    <contour>
      <point x="99" y="700" type="line"/>
      <point x="99" y="543" type="line"/>
      <point x="299" y="543" type="line"/>
      <point x="299" y="700" type="line"/>
    </contour>
    <contour>
      <point x="30" y="500" type="line"/>
      <point x="30" y="410" type="line"/>
      <point x="95" y="410" type="line"/>
      <point x="99" y="71" type="line"/>
      <point x="34" y="70" type="line"/>
      <point x="34" y="0" type="line"/>
      <point x="372" y="0" type="line"/>
      <point x="372" y="70" type="line"/>
      <point x="303" y="70" type="line"/>
      <point x="299" y="500" type="line"/>
    </contour>
  </outline>
  <guideline angle="0" x="0" y="700"/>
  <guideline angle="0" x="0" y="500"/>
</glyph>
<glyph name="j" format="2">
  <advance width="372"/>
  <unicode hex="006A"/>
  <outline>
    <contour>
      <point x="132" y="700" type="line"/>
      <point x="332" y="700" type="line"/>
      <point x="332" y="540" type="line"/>
      <point x="132" y="540" type="line"/>
    </contour>
    <contour>
      <point x="332" y="489" type="curve"/>
      <point x="48" y="492" type="line"/>
      <point x="48" y="402" type="line"/>
      <point x="123" y="402" type="line"/>
      <point x="123" y="240"/>
      <point x="123" y="-61"/>
      <point x="123" y="-84" type="curve" smooth="yes"/>
      <point x="123" y="-107"/>
      <point x="101" y="-135"/>
      <point x="73" y="-135" type="curve" smooth="yes"/>
      <point x="59" y="-135"/>
      <point x="46" y="-131"/>
      <point x="36" y="-126" type="curve"/>
      <point x="10" y="-189" type="line"/>
      <point x="10" y="-189"/>
      <point x="65" y="-230"/>
      <point x="188" y="-230" type="curve" smooth="yes"/>
      <point x="282" y="-230"/>
      <point x="332" y="-180"/>
      <point x="332" y="-104" type="curve" smooth="yes"/>
      <point x="332" y="-19"/>
      <point x="332" y="489"/>
    </contour>
  </outline>
  <guideline angle="0" x="0" y="700"/>
  <guideline angle="90" x="124" y="0"/>
  <guideline angle="90" x="326" y="0"/>
  <guideline angle="0" x="0" y="-230"/>
</glyph>
<glyph name="k" format="2">
  <advance width="728"/>
  <unicode hex="006B"/>
  <outline>
    <contour>
      <point x="30" y="700" type="line"/>
      <point x="291" y="700" type="line"/>
      <point x="291" y="249" type="line"/>
      <point x="551" y="427" type="line"/>
      <point x="438" y="427" type="line"/>
      <point x="438" y="502" type="line"/>
      <point x="690" y="502" type="line"/>
      <point x="690" y="427" type="line"/>
      <point x="652" y="427" type="line"/>
      <point x="530" y="342" type="line"/>
      <point x="635" y="76" type="line"/>
      <point x="698" y="75" type="line"/>
      <point x="698" y="0" type="line"/>
      <point x="373" y="0" type="line"/>
      <point x="373" y="75" type="line"/>
      <point x="435" y="76" type="line"/>
      <point x="377" y="237" type="line"/>
      <point x="292" y="184" type="line"/>
      <point x="292" y="76" type="line"/>
      <point x="349" y="75" type="line"/>
      <point x="349" y="0" type="line"/>
      <point x="38" y="0" type="line"/>
      <point x="38" y="75" type="line"/>
      <point x="94" y="76" type="line"/>
      <point x="94" y="629" type="line"/>
      <point x="30" y="629" type="line"/>
    </contour>
  </outline>
  <guideline angle="0" x="0" y="0"/>
  <guideline angle="0" x="0" y="700"/>
  <guideline angle="0" x="0" y="500"/>
  <guideline angle="0" x="0" y="75"/>
</glyph>
<glyph name="l" format="2">
  <advance width="395"/>
  <unicode hex="006C"/>
  <guideline y="0"/>
  <guideline y="700"/>
  <guideline y="70"/>
  <guideline x="95"/>
  <guideline x="300"/>
  <guideline y="632"/>
  <outline>
    <contour>
      <point x="25" y="0" type="line"/>
      <point x="365" y="0" type="line"/>
      <point x="365" y="70" type="line"/>
      <point x="300" y="70" type="line"/>
      <point x="300" y="700" type="line"/>
      <point x="25" y="700" type="line"/>
      <point x="25" y="632" type="line"/>
      <point x="95" y="632" type="line"/>
      <point x="95" y="70" type="line"/>
      <point x="25" y="70" type="line"/>
    </contour>
  </outline>
</glyph>
<glyph name="m" format="2">
  <advance width="1073"/>
  <unicode hex="006D"/>
  <guideline y="443"/>
  <guideline y="320"/>
  <guideline y="401"/>
  <guideline y="443"/>
  <guideline y="577"/>
  <guideline y="419"/>
  <guideline y="353"/>
  <guideline y="353"/>
  <outline>
    <contour>
      <point x="30" y="0" type="line"/>
      <point x="353" y="0" type="line"/>
      <point x="353" y="70" type="line"/>
      <point x="293" y="70" type="line"/>
      <point x="293" y="320" type="line" smooth="yes"/>
      <point x="293" y="354"/>
      <point x="332" y="401"/>
      <point x="379" y="401" type="curve" smooth="yes"/>
      <point x="409" y="401"/>
      <point x="439" y="377"/>
      <point x="439" y="351" type="curve" smooth="yes"/>
      <point x="439" y="70" type="line"/>
      <point x="379" y="70" type="line"/>
      <point x="379" y="0" type="line"/>
      <point x="701" y="0" type="line"/>
      <point x="701" y="70" type="line"/>
      <point x="636" y="70" type="line"/>
      <point x="636" y="322" type="line"/>
      <point x="615.8" y="423.1" type="line"/>
      <point x="593.6" y="462.6"/>
      <point x="550.85" y="500"/>
      <point x="477" y="500" type="curve" smooth="yes"/>
      <point x="386" y="500"/>
      <point x="343" y="472"/>
      <point x="296" y="443" type="curve"/>
      <point x="296" y="500" type="line"/>
      <point x="30" y="500" type="line"/>
      <point x="30" y="416" type="line"/>
      <point x="93" y="416" type="line"/>
      <point x="93" y="70" type="line"/>
      <point x="30" y="70" type="line"/>
    </contour>
    <contour>
      <point x="721" y="70" type="line"/>
      <point x="721" y="0" type="line"/>
      <point x="1043" y="0" type="line"/>
      <point x="1043" y="70" type="line"/>
      <point x="978" y="70" type="line"/>
      <point x="978" y="353" type="line"/>
      <point x="972" y="434"/>
      <point x="943" y="500"/>
      <point x="819" y="500" type="curve" smooth="yes"/>
      <point x="700" y="500"/>
      <point x="648" y="448"/>
      <point x="616" y="423" type="curve"/>
      <point x="620" y="368"/>
      <point x="615" y="372"/>
      <point x="624" y="351" type="curve" smooth="yes"/>
      <point x="636" y="322" type="line"/>
      <point x="636" y="345"/>
      <point x="674" y="401"/>
      <point x="721" y="401" type="curve" smooth="yes"/>
      <point x="768" y="401"/>
      <point x="782" y="372"/>
      <point x="781" y="351" type="curve"/>
      <point x="781" y="70" type="line"/>
    </contour>
  </outline>
</glyph>
<glyph name="n" format="2">
  <advance width="716"/>
  <unicode hex="006E"/>
  <guideline y="0"/>
  <guideline y="500"/>
  <outline>
    <contour>
      <point x="30" y="0" type="line"/>
      <point x="353" y="0" type="line"/>
      <point x="353" y="70" type="line"/>
      <point x="293" y="70" type="line"/>
      <point x="293" y="153"/>
      <point x="293" y="286"/>
      <point x="293" y="320" type="curve" smooth="yes"/>
      <point x="293" y="354"/>
      <point x="332" y="401"/>
      <point x="379" y="401" type="curve" smooth="yes"/>
      <point x="409" y="401"/>
      <point x="439" y="377"/>
      <point x="439" y="351" type="curve" smooth="yes"/>
      <point x="439" y="314"/>
      <point x="439" y="164"/>
      <point x="439" y="70" type="curve"/>
      <point x="379" y="70" type="line"/>
      <point x="379" y="0" type="line"/>
      <point x="701" y="0" type="line"/>
      <point x="701" y="70" type="line"/>
      <point x="636" y="70" type="line"/>
      <point x="636" y="166"/>
      <point x="636" y="322"/>
      <point x="636" y="353" type="curve" smooth="yes"/>
      <point x="636" y="398"/>
      <point x="599" y="500"/>
      <point x="477" y="500" type="curve" smooth="yes"/>
      <point x="386" y="500"/>
      <point x="343" y="472"/>
      <point x="296" y="443" type="curve"/>
      <point x="296" y="500" type="line"/>
      <point x="30" y="500" type="line"/>
      <point x="30" y="416" type="line"/>
      <point x="93" y="416" type="line"/>
      <point x="93" y="70" type="line"/>
      <point x="30" y="70" type="line"/>
    </contour>
  </outline>
</glyph>
<glyph name="o" format="2">
  <advance width="632"/>
  <unicode hex="006F"/>
  <outline>
    <contour>
      <point x="318" y="510" type="curve"/>
      <point x="140" y="510"/>
      <point x="20" y="392"/>
      <point x="20" y="245" type="curve" smooth="yes"/>
      <point x="20" y="98"/>
      <point x="140" y="-10"/>
      <point x="318" y="-10" type="curve" smooth="yes"/>
      <point x="496" y="-10"/>
      <point x="612" y="98"/>
      <point x="612" y="245" type="curve" smooth="yes"/>
      <point x="612" y="392"/>
      <point x="496" y="510"/>
    </contour>
    <contour>
      <point x="318" y="415" type="curve"/>
      <point x="405" y="414"/>
      <point x="409" y="329"/>
      <point x="409" y="244" type="curve" smooth="yes"/>
      <point x="409" y="159"/>
      <point x="390" y="78"/>
      <point x="318" y="78" type="curve" smooth="yes"/>
      <point x="251" y="78"/>
      <point x="229" y="153"/>
      <point x="229" y="238" type="curve" smooth="yes"/>
      <point x="229" y="323"/>
      <point x="240" y="415"/>
    </contour>
  </outline>
  <guideline angle="90" x="318" y="0"/>
  <guideline angle="0" x="0" y="245"/>
  <guideline angle="0" x="0" y="0"/>
  <guideline angle="0" x="0" y="500"/>
  <guideline angle="0" x="0" y="88"/>
  <guideline angle="0" x="0" y="405"/>
</glyph>
<glyph name="p" format="2">
  <advance width="632"/>
  <unicode hex="0070"/>
  <outline>
    <contour>
      <point x="7" y="500" type="line"/>
      <point x="275" y="500" type="line"/>
      <point x="275" y="456" type="line"/>
      <point x="327" y="508"/>
      <point x="406" y="509"/>
      <point x="419" y="509" type="curve" smooth="yes"/>
      <point x="450" y="509"/>
      <point x="612" y="479"/>
      <point x="612" y="257" type="curve" smooth="yes"/>
      <point x="612" y="35"/>
      <point x="495" y="-7"/>
      <point x="417" y="-7" type="curve" smooth="yes"/>
      <point x="324" y="-7"/>
      <point x="308" y="30"/>
      <point x="274" y="60" type="curve"/>
      <point x="274" y="-139" type="line"/>
      <point x="337" y="-139" type="line"/>
      <point x="337" y="-207" type="line"/>
      <point x="16" y="-207" type="line"/>
      <point x="16" y="-139" type="line"/>
      <point x="72" y="-139" type="line"/>
      <point x="72" y="424" type="line"/>
      <point x="7" y="424" type="line"/>
    </contour>
    <contour>
      <point x="274" y="389" type="curve"/>
      <point x="274" y="120" type="line"/>
      <point x="296" y="105"/>
      <point x="305" y="87"/>
      <point x="348" y="87" type="curve" smooth="yes"/>
      <point x="389" y="87"/>
      <point x="422" y="94"/>
      <point x="422" y="258" type="curve" smooth="yes"/>
      <point x="422" y="417"/>
      <point x="389" y="417"/>
      <point x="347" y="417" type="curve" smooth="yes"/>
      <point x="320" y="417"/>
      <point x="300" y="415"/>
    </contour>
  </outline>
  <guideline angle="0" x="0" y="0"/>
  <guideline angle="0" x="0" y="500"/>
</glyph>
<glyph name="q" format="2">
  <advance width="625"/>
  <unicode hex="0071"/>
  <guideline y="0"/>
  <guideline y="500"/>
  <outline>
    <contour>
      <point x="338" y="452" type="curve"/>
      <point x="338" y="500" type="line"/>
      <point x="599" y="500" type="line"/>
      <point x="599" y="429" type="line"/>
      <point x="539" y="429" type="line"/>
      <point x="539" y="-129" type="line"/>
      <point x="600" y="-129" type="line"/>
      <point x="600" y="-202" type="line"/>
      <point x="286" y="-202" type="line"/>
      <point x="286" y="-129" type="line"/>
      <point x="347" y="-129" type="line"/>
      <point x="347" y="58" type="line"/>
      <point x="323" y="34"/>
      <point x="284" y="-8"/>
      <point x="211" y="-8" type="curve"/>
      <point x="138" y="-8"/>
      <point x="0" y="43"/>
      <point x="0" y="252" type="curve"/>
      <point x="-5" y="427"/>
      <point x="92" y="506"/>
      <point x="200" y="506" type="curve" smooth="yes"/>
      <point x="273" y="506"/>
      <point x="301" y="483"/>
    </contour>
    <contour>
      <point x="341" y="376" type="line"/>
      <point x="326" y="399"/>
      <point x="294" y="415"/>
      <point x="268" y="415" type="curve" smooth="yes"/>
      <point x="215" y="415"/>
      <point x="196" y="355"/>
      <point x="196" y="324" type="curve" smooth="yes"/>
      <point x="196" y="301"/>
      <point x="196" y="229"/>
      <point x="196" y="169" type="curve" smooth="yes"/>
      <point x="196" y="125"/>
      <point x="218" y="92"/>
      <point x="273" y="90" type="curve" smooth="yes"/>
      <point x="296" y="89"/>
      <point x="335" y="117"/>
      <point x="341" y="131" type="curve"/>
    </contour>
  </outline>
</glyph>
<glyph name="r" format="2">
  <advance width="674"/>
  <unicode hex="0072"/>
  <guideline y="0"/>
  <guideline y="500"/>
  <guideline x="304"/>
  <outline>
    <contour>
      <point x="30" y="0" type="line"/>
      <point x="374" y="3" type="line"/>
      <point x="374" y="75" type="line"/>
      <point x="304" y="74" type="line"/>
      <point x="304" y="151"/>
      <point x="304" y="273"/>
      <point x="304" y="309" type="curve" smooth="yes"/>
      <point x="304" y="345"/>
      <point x="346" y="401"/>
      <point x="399" y="401" type="curve" smooth="yes"/>
      <point x="452" y="401"/>
      <point x="461" y="362"/>
      <point x="461" y="320" type="curve"/>
      <point x="643" y="320" type="line"/>
      <point x="645" y="411"/>
      <point x="594" y="500"/>
      <point x="476" y="500" type="curve" smooth="yes"/>
      <point x="380" y="500"/>
      <point x="304" y="450"/>
      <point x="304" y="450" type="curve"/>
      <point x="304" y="500" type="line"/>
      <point x="31" y="500" type="line"/>
      <point x="32" y="410" type="line"/>
      <point x="98" y="410" type="line"/>
      <point x="100" y="74" type="line"/>
      <point x="30" y="74" type="line"/>
    </contour>
  </outline>
</glyph>
<glyph name="s" format="2">
  <advance width="590"/>
  <unicode hex="0073"/>
  <outline>
    <contour>
      <point x="441" y="500" type="line"/>
      <point x="526" y="500" type="line"/>
      <point x="526" y="325" type="line"/>
      <point x="446" y="325" type="line"/>
      <point x="440" y="348"/>
      <point x="406" y="407"/>
      <point x="326" y="407" type="curve" smooth="yes"/>
      <point x="248" y="407"/>
      <point x="230" y="390"/>
      <point x="230" y="367" type="curve" smooth="yes"/>
      <point x="229" y="317"/>
      <point x="315" y="315"/>
      <point x="397" y="295" type="curve"/>
      <point x="443" y="284"/>
      <point x="560" y="268"/>
      <point x="560" y="160" type="curve" smooth="yes"/>
      <point x="560" y="52"/>
      <point x="482" y="-5"/>
      <point x="316" y="-5" type="curve" smooth="yes"/>
      <point x="195" y="-5"/>
      <point x="104" y="38"/>
      <point x="104" y="38" type="curve"/>
      <point x="104" y="0" type="line"/>
      <point x="20" y="0" type="line"/>
      <point x="20" y="173" type="line"/>
      <point x="100" y="173" type="line"/>
      <point x="106" y="134"/>
      <point x="162" y="81"/>
      <point x="246" y="81" type="curve" smooth="yes"/>
      <point x="359" y="81"/>
      <point x="351" y="116"/>
      <point x="351" y="131" type="curve" smooth="yes"/>
      <point x="349" y="204"/>
      <point x="30" y="154"/>
      <point x="30" y="331" type="curve" smooth="yes"/>
      <point x="30" y="508"/>
      <point x="244" y="500"/>
      <point x="276" y="500" type="curve"/>
      <point x="324" y="500"/>
      <point x="402" y="484"/>
      <point x="441" y="446" type="curve"/>
    </contour>
  </outline>
  <guideline angle="0" x="0" y="0"/>
  <guideline angle="0" x="0" y="510"/>
  <guideline angle="0" x="0" y="-10"/>
  <guideline angle="0" x="0" y="500"/>
  <guideline angle="90" x="100" y="0"/>
  <guideline angle="90" x="441" y="0"/>
  <guideline angle="90" x="441" y="0"/>
  <guideline angle="90" x="526" y="0"/>
  <guideline angle="0" x="0" y="407"/>
  <guideline angle="0" x="0" y="325"/>
  <guideline angle="90" x="446" y="0"/>
</glyph>
<glyph name="t" format="2">
  <advance width="418"/>
  <unicode hex="0074"/>
  <guideline y="0"/>
  <guideline y="700"/>
  <guideline y="500"/>
  <guideline y="412"/>
  <outline>
    <contour>
      <point x="79" y="700" type="curve"/>
      <point x="279" y="700" type="line"/>
      <point x="279" y="500" type="line"/>
      <point x="344" y="500" type="line"/>
      <point x="344" y="412" type="line"/>
      <point x="279" y="412" type="line"/>
      <point x="279" y="120" type="line"/>
      <point x="280" y="116"/>
      <point x="278" y="86"/>
      <point x="305" y="86" type="curve" smooth="yes"/>
      <point x="331" y="86"/>
      <point x="324" y="142"/>
      <point x="324" y="165" type="curve"/>
      <point x="383" y="165" type="line"/>
      <point x="383" y="38"/>
      <point x="364" y="-11"/>
      <point x="236" y="-11" type="curve" smooth="yes"/>
      <point x="100" y="-11"/>
      <point x="77" y="65"/>
      <point x="77" y="120" type="curve"/>
      <point x="80" y="412" type="line"/>
      <point x="59" y="412"/>
      <point x="15" y="412"/>
      <point x="15" y="412" type="curve"/>
      <point x="15" y="441"/>
      <point x="15" y="500"/>
      <point x="15" y="500" type="curve"/>
      <point x="80" y="500" type="line"/>
      <point x="80" y="572"/>
      <point x="79" y="700"/>
    </contour>
  </outline>
</glyph>
<glyph name="u" format="2">
  <advance width="720"/>
  <unicode hex="0075"/>
  <outline>
    <contour>
      <point x="290" y="500" type="curve"/>
      <point x="20" y="500" type="line"/>
      <point x="20" y="420" type="line"/>
      <point x="90" y="420" type="line"/>
      <point x="90" y="332"/>
      <point x="90" y="209"/>
      <point x="90" y="171" type="curve" smooth="yes"/>
      <point x="90" y="84"/>
      <point x="139" y="-8"/>
      <point x="272" y="-8" type="curve" smooth="yes"/>
      <point x="405" y="-8"/>
      <point x="435" y="45"/>
      <point x="435" y="45" type="curve"/>
      <point x="435" y="0" type="line"/>
      <point x="700" y="0" type="line"/>
      <point x="700" y="75" type="line"/>
      <point x="634" y="75" type="line"/>
      <point x="634" y="500" type="line"/>
      <point x="355" y="500" type="line"/>
      <point x="355" y="420" type="line"/>
      <point x="435" y="420" type="line"/>
      <point x="435" y="338"/>
      <point x="435" y="194"/>
      <point x="434" y="166" type="curve" smooth="yes"/>
      <point x="433" y="139"/>
      <point x="389" y="91"/>
      <point x="345" y="91" type="curve" smooth="yes"/>
      <point x="301" y="91"/>
      <point x="290" y="121"/>
      <point x="290" y="138" type="curve" smooth="yes"/>
      <point x="290" y="155"/>
      <point x="288" y="378"/>
    </contour>
  </outline>
</glyph>
<glyph name="v" format="2">
  <advance width="711"/>
  <unicode hex="0076"/>
  <outline>
    <contour>
      <point x="20" y="500" type="line"/>
      <point x="367" y="500" type="line"/>
      <point x="367" y="427" type="line"/>
      <point x="291" y="427" type="line"/>
      <point x="411" y="118" type="line"/>
      <point x="537" y="424" type="line"/>
      <point x="457" y="424" type="line"/>
      <point x="457" y="500" type="line"/>
      <point x="681" y="500" type="line"/>
      <point x="681" y="427" type="line"/>
      <point x="622" y="427" type="line"/>
      <point x="449" y="0" type="line"/>
      <point x="256" y="0" type="line"/>
      <point x="85" y="420" type="line"/>
      <point x="20" y="420" type="line"/>
    </contour>
  </outline>
  <guideline angle="0" x="0" y="0"/>
  <guideline angle="0" x="0" y="500"/>
</glyph>
<glyph name="w" format="2">
  <advance width="1154"/>
  <unicode hex="0077"/>
  <outline>
    <contour>
      <point x="252" y="0" type="line"/>
      <point x="261" y="0"/>
      <point x="399" y="0"/>
      <point x="472" y="0" type="curve"/>
      <point x="509" y="101"/>
      <point x="583" y="307"/>
      <point x="583" y="307" type="curve"/>
      <point x="627" y="206"/>
      <point x="707" y="0"/>
      <point x="715" y="0" type="curve" smooth="yes"/>
      <point x="723" y="0"/>
      <point x="846" y="0"/>
      <point x="910" y="0" type="curve"/>
      <point x="1065" y="420" type="line"/>
      <point x="1124" y="420" type="line"/>
      <point x="1124" y="501" type="line"/>
      <point x="894" y="501" type="line"/>
      <point x="894" y="420" type="line"/>
      <point x="969" y="420" type="line"/>
      <point x="860" y="131" type="line"/>
      <point x="742" y="420" type="line"/>
      <point x="825" y="420" type="line"/>
      <point x="825" y="501" type="line"/>
      <point x="445" y="501" type="line"/>
      <point x="445" y="420" type="line"/>
      <point x="532" y="420" type="line"/>
      <point x="494" y="324"/>
      <point x="418" y="129"/>
      <point x="418" y="129" type="curve"/>
      <point x="303" y="420" type="line"/>
      <point x="383" y="420" type="line"/>
      <point x="383" y="501" type="line"/>
      <point x="30" y="501" type="line"/>
      <point x="30" y="420" type="line"/>
      <point x="91" y="420" type="line"/>
    </contour>
  </outline>
  <guideline angle="0" x="0" y="0"/>
  <guideline angle="0" x="0" y="501"/>
  <guideline angle="0" x="0" y="420"/>
</glyph>
<glyph name="x" format="2">
  <advance width="720"/>
  <unicode hex="0078"/>
  <outline>
    <contour>
      <point x="30" y="500" type="line"/>
      <point x="388" y="500" type="line"/>
      <point x="388" y="430" type="line"/>
      <point x="294" y="430" type="line"/>
      <point x="397" y="311" type="line"/>
      <point x="541" y="430" type="line"/>
      <point x="442" y="430" type="line"/>
      <point x="442" y="500" type="line"/>
      <point x="690" y="500" type="line"/>
      <point x="690" y="430" type="line"/>
      <point x="632" y="430" type="line"/>
      <point x="438" y="272" type="line"/>
      <point x="619" y="73" type="line"/>
      <point x="690" y="73" type="line"/>
      <point x="690" y="0" type="line"/>
      <point x="330" y="0" type="line"/>
      <point x="330" y="65" type="line"/>
      <point x="412" y="65" type="line"/>
      <point x="319" y="175" type="line"/>
      <point x="188" y="65" type="line"/>
      <point x="277" y="65" type="line"/>
      <point x="277" y="0" type="line"/>
      <point x="34" y="0" type="line"/>
      <point x="34" y="65" type="line"/>
      <point x="99" y="65" type="line"/>
      <point x="277" y="211" type="line"/>
      <point x="88" y="430" type="line"/>
      <point x="30" y="430" type="line"/>
    </contour>
  </outline>
  <guideline angle="0" x="0" y="0"/>
  <guideline angle="0" x="0" y="500"/>
</glyph>
<glyph name="y" format="2">
  <advance width="720"/>
  <unicode hex="0079"/>
  <guideline y="-1"/>
  <guideline y="700"/>
  <guideline y="500"/>
  <outline>
    <contour>
      <point x="397" y="-121" type="line"/>
      <point x="387" y="-129"/>
      <point x="357" y="-213"/>
      <point x="260" y="-213" type="curve" smooth="yes"/>
      <point x="75" y="-213"/>
      <point x="112" y="-43"/>
      <point x="112" y="-43" type="curve"/>
      <point x="199" y="-43" type="line"/>
      <point x="199" y="-80"/>
      <point x="200" y="-127"/>
      <point x="253" y="-127" type="curve" smooth="yes"/>
      <point x="294" y="-127"/>
      <point x="311" y="-100"/>
      <point x="333" y="-41" type="curve"/>
      <point x="104" y="425" type="line"/>
      <point x="30" y="425" type="line"/>
      <point x="30" y="500" type="line"/>
      <point x="400" y="500" type="line"/>
      <point x="400" y="429" type="line"/>
      <point x="311" y="429" type="line"/>
      <point x="351" y="351"/>
      <point x="432" y="182"/>
      <point x="432" y="182" type="curve"/>
      <point x="544" y="425" type="line"/>
      <point x="467" y="425" type="line"/>
      <point x="467" y="500" type="line"/>
      <point x="705" y="500" type="line"/>
      <point x="705" y="428" type="line"/>
      <point x="645" y="428" type="line"/>
    </contour>
  </outline>
</glyph>
<glyph name="z" format="2">
  <advance width="593"/>
  <unicode hex="007A"/>
  <guideline y="0"/>
  <guideline y="500"/>
  <outline>
    <contour>
      <point x="50" y="329" type="line"/>
      <point x="50" y="500" type="line"/>
      <point x="539" y="500" type="line"/>
      <point x="539" y="428" type="line"/>
      <point x="252" y="80" type="line"/>
      <point x="483" y="80" type="line"/>
      <point x="483" y="179" type="line"/>
      <point x="563" y="179" type="line"/>
      <point x="563" y="0" type="line"/>
      <point x="30" y="0" type="line"/>
      <point x="30" y="88" type="line"/>
      <point x="321" y="422" type="line"/>
      <point x="127" y="422" type="line"/>
      <point x="127" y="329" type="line"/>
    </contour>
  </outline>
</glyph>
